<svg version="1.1" id="Layer_1" xmlns="http://www.w3.org/2000/svg" xmlns:xlink="http://www.w3.org/1999/xlink" x="0px" y="0px"
	 width="100%" viewBox="0 0 512 512" enable-background="new 0 0 512 512" xml:space="preserve">
<path fill="#DBEDFF" opacity="1.000000" stroke="none" 
	d="
M435.839539,94.000206 
	C435.893005,95.663048 435.993256,97.325897 435.993347,98.988739 
	C436.000641,226.986618 436.000000,354.984497 436.000000,482.982361 
	C436.000000,484.578461 436.000000,486.174530 436.000000,488.513275 
	C425.537018,481.717590 415.747406,475.359253 406.072327,469.075287 
	C396.807648,475.095703 387.700012,481.177216 378.365112,486.887207 
	C377.105164,487.657928 374.339966,487.140900 372.888519,486.233612 
	C364.005005,480.680420 355.299347,474.842773 346.489136,469.070251 
	C337.853271,474.681824 329.179321,480.234680 320.607269,485.940552 
	C318.132263,487.588013 316.472321,488.441620 313.376190,486.250580 
	C304.843506,480.212219 295.819244,474.868500 286.665649,469.044006 
	C277.845703,474.862305 268.764923,480.979645 259.503479,486.810028 
	C258.273041,487.584656 255.704514,487.566681 254.469986,486.786072 
	C246.286453,481.611603 238.272125,476.166656 230.263382,470.720520 
	C228.193405,469.312897 226.835892,468.993103 224.407654,470.753021 
	C216.984650,476.132935 209.051880,480.804718 201.544327,486.075165 
	C198.703506,488.069519 196.573410,488.250153 193.720200,486.287811 
	C185.886642,480.900146 177.960724,475.637787 169.902893,470.595032 
	C168.707031,469.846619 166.202515,469.922394 164.978409,470.691315 
	C156.934677,475.744110 149.049164,481.051697 141.173325,486.366974 
	C138.732956,488.013977 137.065002,488.128845 134.300903,486.183075 
	C125.756157,480.168152 116.765839,474.786255 107.865189,469.105347 
	C98.302940,475.322845 88.603027,481.629883 78.448242,488.232666 
	C78.448242,334.128510 78.448242,180.329559 78.448242,26.012880 
	C174.544907,26.012880 270.812500,26.012880 367.542633,26.543041 
	C368.003113,47.702705 368.088257,68.332916 367.921326,88.961082 
	C367.889984,92.831947 368.925781,94.131393 372.953613,94.094849 
	C393.914154,93.904655 414.877289,94.002586 435.839539,94.000206 
M287.999603,155.830017 
	C287.854279,150.240097 285.560486,145.703522 280.576569,143.162842 
	C275.873657,140.765381 270.793365,139.118896 265.974823,136.931183 
	C264.501068,136.262070 262.285919,134.960495 262.217621,133.838501 
	C261.846680,127.745872 262.041504,121.618790 262.041504,113.670563 
	C268.467163,116.852753 273.655365,119.422104 279.342865,122.238747 
	C281.397308,119.390747 283.756897,116.119713 286.167969,112.777321 
	C279.404755,105.576530 271.012268,103.149460 262.456635,101.476883 
	C262.264771,100.642372 262.050934,100.162300 262.062439,99.687683 
	C262.127594,96.994209 262.024353,94.593735 258.206207,94.952744 
	C255.242706,95.231407 251.473770,93.880089 251.851501,99.278946 
	C251.912842,100.155937 250.356461,101.496376 249.259689,102.026871 
	C247.331177,102.959641 245.119278,103.287582 243.132751,104.122627 
	C234.418991,107.785553 229.074646,114.454628 228.161148,123.719528 
	C227.325974,132.190292 231.125626,138.954285 238.944366,142.891403 
	C242.047302,144.453903 245.514359,145.292587 248.619736,146.851166 
	C249.990906,147.539352 251.762054,149.152634 251.829041,150.426025 
	C252.159256,156.703903 251.979187,163.008636 251.979187,170.936020 
	C245.129822,167.402817 239.358505,164.425720 233.038452,161.165558 
	C230.746124,163.941681 228.270767,166.939468 225.756073,169.984894 
	C231.702805,177.166336 239.294205,180.098602 247.326324,181.732346 
	C250.847885,182.448654 252.414169,183.586548 252.008224,187.130600 
	C251.701981,189.804153 252.767700,190.736603 255.605362,191.117050 
	C261.815918,191.949677 262.382111,188.130905 262.262939,183.626648 
	C264.317902,183.107193 266.061890,182.654938 267.811523,182.225845 
	C283.180481,178.456665 287.999908,172.374664 287.999603,155.830017 
M257.500000,255.016907 
	C296.478943,255.016556 335.457886,255.024414 374.436829,255.006714 
	C380.082489,255.004150 382.771729,252.981506 382.964630,248.781647 
	C383.165497,244.409363 379.649597,241.048965 374.435272,241.044510 
	C325.128601,241.002518 275.821899,241.004349 226.515228,241.043594 
	C221.746292,241.047394 218.210556,244.067459 218.085281,247.846527 
	C217.954880,251.780212 221.680634,254.991989 226.516220,255.006729 
	C236.510727,255.037186 246.505402,255.016571 257.500000,255.016907 
M308.500000,298.010437 
	C281.532104,298.010712 254.564163,298.000092 227.596268,298.019958 
	C221.799026,298.024231 217.894608,301.045837 218.082596,305.249908 
	C218.264542,309.318390 221.952591,312.007660 227.415527,312.008911 
	C255.548706,312.015259 283.681885,312.012360 311.815063,312.012085 
	C332.956573,312.011871 354.098053,311.998108 375.239563,312.020264 
	C379.565186,312.024780 382.209534,309.794830 382.887390,305.740936 
	C383.504822,302.048401 380.096588,298.552643 375.917847,298.064514 
	C374.602966,297.910919 373.257294,298.011963 371.925690,298.011841 
	C351.117126,298.009888 330.308563,298.010468 308.500000,298.010437 
M291.500000,369.007507 
	C318.995392,369.007324 346.490814,369.012726 373.986206,369.002045 
	C379.257690,369.000000 383.064911,365.921936 382.931030,361.843903 
	C382.801666,357.905396 379.171082,355.025696 374.003387,355.022980 
	C325.011597,354.997040 276.019836,354.997253 227.028061,355.022766 
	C221.855164,355.025452 218.225113,357.891083 218.084000,361.827881 
	C217.937744,365.908356 221.744034,368.998505 227.010666,369.001648 
	C248.173782,369.014282 269.336884,369.007294 291.500000,369.007507 
M131.056900,249.306946 
	C131.927063,253.735916 134.906723,255.062698 139.067871,255.041306 
	C152.535278,254.972092 166.003296,255.032394 179.471024,255.007263 
	C184.277908,254.998291 187.882965,252.203186 187.967865,248.537674 
	C188.067413,244.240906 184.488541,241.063461 179.208679,241.038330 
	C166.073746,240.975800 152.938309,241.023407 139.803085,241.015060 
	C134.723206,241.011841 131.632568,243.305466 131.056900,249.306946 
M172.452362,298.010437 
	C161.464676,298.011475 150.476532,297.952667 139.489532,298.040466 
	C134.483154,298.080475 131.116104,301.129883 131.028992,305.343353 
	C130.940475,309.624634 133.702209,311.977417 139.120895,311.995544 
	C152.772110,312.041290 166.423660,312.037476 180.074890,311.994629 
	C184.252930,311.981506 187.751251,308.887543 187.924194,305.265594 
	C188.095306,301.681458 184.714844,298.346741 180.421738,298.054138 
	C178.101471,297.895996 175.762253,298.015991 172.452362,298.010437 
M183.306213,355.703857 
	C182.840485,355.527283 182.375473,355.198395 181.908920,355.196167 
	C167.270554,355.126709 152.630585,354.962311 137.994431,355.127319 
	C133.839935,355.174133 130.445251,359.143738 131.115402,362.814392 
	C131.851654,366.847321 134.510086,369.036133 138.836395,369.021698 
	C152.314377,368.976715 165.794388,368.883789 179.269653,369.080566 
	C183.358688,369.140259 186.037613,367.637329 187.441254,363.984161 
	C188.829147,360.371979 186.859421,357.975769 183.306213,355.703857 
z"/>
<path fill="#B6DCFF" opacity="1.000000" stroke="none" 
	d="
M435.840851,93.664131 
	C414.877289,94.002586 393.914154,93.904655 372.953613,94.094849 
	C368.925781,94.131393 367.889984,92.831947 367.921326,88.961082 
	C368.088257,68.332916 368.003113,47.702705 368.007019,26.614491 
	C369.129761,27.052618 370.347534,27.852419 371.357300,28.860577 
	C392.866333,50.335651 414.351959,71.834137 435.840851,93.664131 
z"/>
<path fill="#B5DCFF" opacity="1.000000" stroke="none" 
	d="
M287.999817,156.284790 
	C287.999908,172.374664 283.180481,178.456665 267.811523,182.225845 
	C266.061890,182.654938 264.317902,183.107193 262.262939,183.626648 
	C262.382111,188.130905 261.815918,191.949677 255.605362,191.117050 
	C252.767700,190.736603 251.701981,189.804153 252.008224,187.130600 
	C252.414169,183.586548 250.847885,182.448654 247.326324,181.732346 
	C239.294205,180.098602 231.702805,177.166336 225.756073,169.984894 
	C228.270767,166.939468 230.746124,163.941681 233.038452,161.165558 
	C239.358505,164.425720 245.129822,167.402817 251.979187,170.936020 
	C251.979187,163.008636 252.159256,156.703903 251.829041,150.426025 
	C251.762054,149.152634 249.990906,147.539352 248.619736,146.851166 
	C245.514359,145.292587 242.047302,144.453903 238.944366,142.891403 
	C231.125626,138.954285 227.325974,132.190292 228.161148,123.719528 
	C229.074646,114.454628 234.418991,107.785553 243.132751,104.122627 
	C245.119278,103.287582 247.331177,102.959641 249.259689,102.026871 
	C250.356461,101.496376 251.912842,100.155937 251.851501,99.278946 
	C251.473770,93.880089 255.242706,95.231407 258.206207,94.952744 
	C262.024353,94.593735 262.127594,96.994209 262.062439,99.687683 
	C262.050934,100.162300 262.264771,100.642372 262.456635,101.476883 
	C271.012268,103.149460 279.404755,105.576530 286.167969,112.777321 
	C283.756897,116.119713 281.397308,119.390747 279.342865,122.238747 
	C273.655365,119.422104 268.467163,116.852753 262.041504,113.670563 
	C262.041504,121.618790 261.846680,127.745872 262.217621,133.838501 
	C262.285919,134.960495 264.501068,136.262070 265.974823,136.931183 
	C270.793365,139.118896 275.873657,140.765381 280.576569,143.162842 
	C285.560486,145.703522 287.854279,150.240097 287.999817,156.284790 
M262.043884,153.086395 
	C262.043884,158.775116 262.043884,164.463837 262.043884,170.905731 
	C265.103363,170.042511 267.267944,169.787277 269.080261,168.850494 
	C273.623566,166.502075 275.399536,160.858093 273.237640,156.533478 
	C271.510223,153.077988 265.621399,150.793991 262.043884,153.086395 
M243.040344,122.832130 
	C243.340759,129.090408 244.978882,130.958435 252.000168,132.462601 
	C252.000168,128.926300 252.163544,125.493484 251.943405,122.085442 
	C251.793777,119.768845 251.106689,117.486977 250.659958,115.189583 
	C248.413605,116.868217 246.132141,118.503265 243.949615,120.261131 
	C243.496109,120.626389 243.409302,121.446930 243.040344,122.832130 
z"/>
<path fill="#B5DCFF" opacity="1.000000" stroke="none" 
	d="
M257.000000,255.016937 
	C246.505402,255.016571 236.510727,255.037186 226.516220,255.006729 
	C221.680634,254.991989 217.954880,251.780212 218.085281,247.846527 
	C218.210556,244.067459 221.746292,241.047394 226.515228,241.043594 
	C275.821899,241.004349 325.128601,241.002518 374.435272,241.044510 
	C379.649597,241.048965 383.165497,244.409363 382.964630,248.781647 
	C382.771729,252.981506 380.082489,255.004150 374.436829,255.006714 
	C335.457886,255.024414 296.478943,255.016556 257.000000,255.016937 
z"/>
<path fill="#B6DCFF" opacity="1.000000" stroke="none" 
	d="
M309.000000,298.010437 
	C330.308563,298.010468 351.117126,298.009888 371.925690,298.011841 
	C373.257294,298.011963 374.602966,297.910919 375.917847,298.064514 
	C380.096588,298.552643 383.504822,302.048401 382.887390,305.740936 
	C382.209534,309.794830 379.565186,312.024780 375.239563,312.020264 
	C354.098053,311.998108 332.956573,312.011871 311.815063,312.012085 
	C283.681885,312.012360 255.548706,312.015259 227.415527,312.008911 
	C221.952591,312.007660 218.264542,309.318390 218.082596,305.249908 
	C217.894608,301.045837 221.799026,298.024231 227.596268,298.019958 
	C254.564163,298.000092 281.532104,298.010712 309.000000,298.010437 
z"/>
<path fill="#B6DCFF" opacity="1.000000" stroke="none" 
	d="
M291.000000,369.007507 
	C269.336884,369.007294 248.173782,369.014282 227.010666,369.001648 
	C221.744034,368.998505 217.937744,365.908356 218.084000,361.827881 
	C218.225113,357.891083 221.855164,355.025452 227.028061,355.022766 
	C276.019836,354.997253 325.011597,354.997040 374.003387,355.022980 
	C379.171082,355.025696 382.801666,357.905396 382.931030,361.843903 
	C383.064911,365.921936 379.257690,369.000000 373.986206,369.002045 
	C346.490814,369.012726 318.995392,369.007324 291.000000,369.007507 
z"/>
<path fill="#B5DCFF" opacity="1.000000" stroke="none" 
	d="
M131.040176,248.912613 
	C131.632568,243.305466 134.723206,241.011841 139.803085,241.015060 
	C152.938309,241.023407 166.073746,240.975800 179.208679,241.038330 
	C184.488541,241.063461 188.067413,244.240906 187.967865,248.537674 
	C187.882965,252.203186 184.277908,254.998291 179.471024,255.007263 
	C166.003296,255.032394 152.535278,254.972092 139.067871,255.041306 
	C134.906723,255.062698 131.927063,253.735916 131.040176,248.912613 
z"/>
<path fill="#B6DCFF" opacity="1.000000" stroke="none" 
	d="
M172.941971,298.010468 
	C175.762253,298.015991 178.101471,297.895996 180.421738,298.054138 
	C184.714844,298.346741 188.095306,301.681458 187.924194,305.265594 
	C187.751251,308.887543 184.252930,311.981506 180.074890,311.994629 
	C166.423660,312.037476 152.772110,312.041290 139.120895,311.995544 
	C133.702209,311.977417 130.940475,309.624634 131.028992,305.343353 
	C131.116104,301.129883 134.483154,298.080475 139.489532,298.040466 
	C150.476532,297.952667 161.464676,298.011475 172.941971,298.010468 
z"/>
<path fill="#B6DCFF" opacity="1.000000" stroke="none" 
	d="
M183.677429,355.873535 
	C186.859421,357.975769 188.829147,360.371979 187.441254,363.984161 
	C186.037613,367.637329 183.358688,369.140259 179.269653,369.080566 
	C165.794388,368.883789 152.314377,368.976715 138.836395,369.021698 
	C134.510086,369.036133 131.851654,366.847321 131.115402,362.814392 
	C130.445251,359.143738 133.839935,355.174133 137.994431,355.127319 
	C152.630585,354.962311 167.270554,355.126709 181.908920,355.196167 
	C182.375473,355.198395 182.840485,355.527283 183.677429,355.873535 
z"/>
<path fill="#DBEDFF" opacity="1.000000" stroke="none" 
	d="
M262.120056,152.668732 
	C265.621399,150.793991 271.510223,153.077988 273.237640,156.533478 
	C275.399536,160.858093 273.623566,166.502075 269.080261,168.850494 
	C267.267944,169.787277 265.103363,170.042511 262.043884,170.905731 
	C262.043884,164.463837 262.043884,158.775116 262.120056,152.668732 
z"/>
<path fill="#DBEDFF" opacity="1.000000" stroke="none" 
	d="
M243.096924,122.444893 
	C243.409302,121.446930 243.496109,120.626389 243.949615,120.261131 
	C246.132141,118.503265 248.413605,116.868217 250.659943,115.189575 
	C251.106689,117.486977 251.793777,119.768845 251.943405,122.085442 
	C252.163544,125.493484 252.000168,128.926300 252.000168,132.462601 
	C244.978882,130.958435 243.340759,129.090408 243.096924,122.444893 
z"/>
</svg>